<svg width="19" height="19" viewBox="0 0 19 19" fill="none" xmlns="http://www.w3.org/2000/svg">
<path fill-rule="evenodd" clip-rule="evenodd" d="M13.7071 3.12102C13.3166 2.73049 12.6834 2.73049 12.2929 3.12102L11.4142 3.99967L15 7.58545L15.8787 6.7068C16.2692 6.31628 16.2692 5.68312 15.8787 5.29259L13.7071 3.12102ZM3.91425 11.4997L10 5.41388L13.5858 8.99967L7.50003 15.0855L3.91425 11.4997ZM2.50003 12.9139L2 13.4139V16.9997H5.58579L6.08582 16.4997L2.50003 12.9139ZM10.8787 1.7068C12.0503 0.535232 13.9497 0.535232 15.1213 1.7068L17.2929 3.87838C18.4645 5.04995 18.4645 6.94945 17.2929 8.12102L7 18.4139C6.62493 18.789 6.11622 18.9997 5.58579 18.9997H2C0.89543 18.9997 0 18.1043 0 16.9997V13.4139C0 12.8835 0.210714 12.3748 0.585786 11.9997L10.8787 1.7068Z" fill="#fff"/>
</svg>
